<svg width="680" height="320" viewBox="0 0 680 320" xmlns="http://www.w3.org/2000/svg">
<defs><marker id="arrow" viewBox="0 0 10 10" refX="8" refY="5" markerWidth="6" markerHeight="6" orient="auto-start-reverse"><path d="M2 1L8 5L2 9" fill="none" stroke="#666" stroke-width="1.5" stroke-linecap="round" stroke-linejoin="round"/></marker></defs>
<rect x="40" y="60" width="180" height="56" rx="8" fill="#EEEDFE" stroke="#534AB7" stroke-width="0.5"/>
<text x="130" y="80" text-anchor="middle" font-family="sans-serif" font-size="14" font-weight="500" fill="#26215C">React frontend</text>
<text x="130" y="98" text-anchor="middle" font-family="sans-serif" font-size="12" fill="#3C3489">Port 5173</text>
<rect x="250" y="60" width="180" height="56" rx="8" fill="#E1F5EE" stroke="#0F6E56" stroke-width="0.5"/>
<text x="340" y="80" text-anchor="middle" font-family="sans-serif" font-size="14" font-weight="500" fill="#04342C">Node backend</text>
<text x="340" y="98" text-anchor="middle" font-family="sans-serif" font-size="12" fill="#085041">Port 4000, Express</text>
<rect x="460" y="60" width="180" height="56" rx="8" fill="#FAECE7" stroke="#993C1D" stroke-width="0.5"/>
<text x="550" y="80" text-anchor="middle" font-family="sans-serif" font-size="14" font-weight="500" fill="#4A1B0C">Python AI service</text>
<text x="550" y="98" text-anchor="middle" font-family="sans-serif" font-size="12" fill="#712B13">Port 8000, FastAPI</text>
<line x1="220" y1="88" x2="248" y2="88" stroke="#666" stroke-width="1" marker-end="url(#arrow)"/>
<line x1="430" y1="88" x2="458" y2="88" stroke="#666" stroke-width="1" marker-end="url(#arrow)"/>
<rect x="250" y="220" width="180" height="56" rx="8" fill="#E1F5EE" stroke="#0F6E56" stroke-width="0.5"/>
<text x="340" y="240" text-anchor="middle" font-family="sans-serif" font-size="14" font-weight="500" fill="#04342C">PostgreSQL</text>
<text x="340" y="258" text-anchor="middle" font-family="sans-serif" font-size="12" fill="#085041">Users, files, failures</text>
<rect x="460" y="220" width="180" height="56" rx="8" fill="#FAECE7" stroke="#993C1D" stroke-width="0.5"/>
<text x="550" y="240" text-anchor="middle" font-family="sans-serif" font-size="14" font-weight="500" fill="#4A1B0C">Ollama</text>
<text x="550" y="258" text-anchor="middle" font-family="sans-serif" font-size="12" fill="#712B13">Local llama3.2 model</text>
<line x1="340" y1="116" x2="340" y2="218" stroke="#666" stroke-width="1" marker-end="url(#arrow)"/>
<line x1="550" y1="116" x2="550" y2="218" stroke="#666" stroke-width="1" marker-end="url(#arrow)"/>
</svg>